<?xml version="1.0" encoding="UTF-8" standalone="no"?>
<svg
   width="71.45735289623212mm"
   height="123.54456274232915mm"
   viewBox="0 0 71.45735289623212 123.54456274232915"
   version="1.1"
   id="svg33"
   sodipodi:docname="board_outline_w_screw_holes.svg"
   inkscape:version="1.1.1 (3bf5ae0d25, 2021-09-20)"
   xmlns:inkscape="http://www.inkscape.org/namespaces/inkscape"
   xmlns:sodipodi="http://sodipodi.sourceforge.net/DTD/sodipodi-0.dtd"
   xmlns="http://www.w3.org/2000/svg"
   xmlns:svg="http://www.w3.org/2000/svg">
  <defs
     id="defs37" />
  <sodipodi:namedview
     id="namedview35"
     pagecolor="#505050"
     bordercolor="#eeeeee"
     borderopacity="1"
     inkscape:pageshadow="0"
     inkscape:pageopacity="0"
     inkscape:pagecheckerboard="0"
     inkscape:document-units="mm"
     showgrid="false"
     inkscape:zoom="1.5398121"
     inkscape:cx="135.08141"
     inkscape:cy="233.47004"
     inkscape:window-width="1920"
     inkscape:window-height="1017"
     inkscape:window-x="-8"
     inkscape:window-y="-8"
     inkscape:window-maximized="1"
     inkscape:current-layer="svg33" />
  <g
     id="Sketch004"
     transform="translate(35.742720,61.822748) scale(1,-1)">
    <path
       id="Sketch004_w0000"
       d="M -32.31559200000008 -57.456411845954094 A 144.95 144.95 0 0 1 2.99709 -61.0213L 2.997091451660844 -60.02125292569376 L 7.997091451659869 -60.02125292569376 L 7.997091451659869 -60.82420796321831 A 144.95 144.95 0 0 1 13.2971 -60.426A 5.77954 5.77954 0 0 1 15.281 -59.9467A 2.30676 2.30676 0 0 1 15.7875 -58.44L 15.787457451656763 -47.065905565365114 A 9.01172 9.01172 0 0 0 24.6183 -37.9425L 35.01407032963933 -37.94254726169906 L 35.01407032963933 -3.303585 L 33.49407 -3.303585 L 33.49407 1.288596 L 35.01407 1.288596000000001 L 35.01407 18.11688 L 33.17675 18.11688 L 33.17675 28.625509 L 30.610416 28.625509 L 30.610416 38.169029 L 33.17675 38.169029 L 33.17675 45.839569 L 35.01407 45.839569 L 35.01407 61.122185250042605 L -32.364998 61.122185250042605 L -32.364998 58.577805 L -35.01593 58.577805 L -35.01593 1.288596 L -33.49593 1.288596 L -33.49593 -3.303585 L -35.015929999261 -3.303585 L -35.015929999261 -7.718051749957394 L -34.087966999261 -7.718051749957393 A 1.18518 1.18518 0 1 0 -34.088 -10.0884L -35.042158 -10.088419749957392 L -35.01592999999565 -54.980307965655996 A 3.41435 3.41435 0 0 1 -32.3156 -57.4565"
       stroke="#000000"
       stroke-width="0.35 px"
       style="stroke-width:0.35;stroke-miterlimit:4;stroke-dasharray:none;fill:none;fill-opacity:1;fill-rule: evenodd" />
    <title
       id="title3">b'BoardOutline'</title>
  </g>
  <g
     id="Sketch010"
     transform="translate(35.742720,61.822748) scale(1,-1)">
    <circle
       cx="-32.46593"
       cy="10.643327"
       r="1.2"
       stroke="#000000"
       stroke-width="0.35 px"
       style="stroke-width:0.35;stroke-miterlimit:4;stroke-dasharray:none;fill:none"
       id="circle6" />
    <circle
       cx="32.46406999999999"
       cy="10.643327"
       r="1.2"
       stroke="#000000"
       stroke-width="0.35 px"
       style="stroke-width:0.35;stroke-miterlimit:4;stroke-dasharray:none;fill:none"
       id="circle8" />
    <circle
       cx="32.51407"
       cy="54.622185"
       r="1.2"
       stroke="#000000"
       stroke-width="0.35 px"
       style="stroke-width:0.35;stroke-miterlimit:4;stroke-dasharray:none;fill:none"
       id="circle10" />
    <circle
       cx="-32.56593"
       cy="53.622185"
       r="1.2"
       stroke="#000000"
       stroke-width="0.35 px"
       style="stroke-width:0.35;stroke-miterlimit:4;stroke-dasharray:none;fill:none"
       id="circle12" />
    <circle
       cx="-32.46593"
       cy="-32.159767"
       r="1.2"
       stroke="#000000"
       stroke-width="0.35 px"
       style="stroke-width:0.35;stroke-miterlimit:4;stroke-dasharray:none;fill:none"
       id="circle14" />
    <circle
       cx="32.51407"
       cy="-27.333412"
       r="1.2"
       stroke="#000000"
       stroke-width="0.35 px"
       style="stroke-width:0.35;stroke-miterlimit:4;stroke-dasharray:none;fill:none"
       id="circle16" />
    <circle
       cx="-12.69306"
       cy="-34.191917"
       r="1.2"
       stroke="#000000"
       stroke-width="0.35 px"
       style="stroke-width:0.35;stroke-miterlimit:4;stroke-dasharray:none;fill:none"
       id="circle18" />
    <circle
       cx="-10.84452"
       cy="-28.362686"
       r="1.2"
       stroke="#000000"
       stroke-width="0.35 px"
       style="stroke-width:0.35;stroke-miterlimit:4;stroke-dasharray:none;fill:none"
       id="circle20" />
    <circle
       cx="-5.510981999999999"
       cy="-20.479137"
       r="1.2"
       stroke="#000000"
       stroke-width="0.35 px"
       style="stroke-width:0.35;stroke-miterlimit:4;stroke-dasharray:none;fill:none"
       id="circle22" />
    <circle
       cx="16.358316000000002"
       cy="-13.636703"
       r="1.2"
       stroke="#000000"
       stroke-width="0.35 px"
       style="stroke-width:0.35;stroke-miterlimit:4;stroke-dasharray:none;fill:none"
       id="circle24" />
    <circle
       cx="13.694093000000002"
       cy="-35.248867000000004"
       r="1.2"
       stroke="#000000"
       stroke-width="0.35 px"
       style="stroke-width:0.35;stroke-miterlimit:4;stroke-dasharray:none;fill:none"
       id="circle26" />
    <circle
       cx="21.857366519510773"
       cy="-24.64162092917382"
       r="2.0"
       stroke="#000000"
       stroke-width="0.35 px"
       style="stroke-width:0.35;stroke-miterlimit:4;stroke-dasharray:none;fill:none"
       id="circle28" />
    <title
       id="title30">b'ScrewHoles'</title>
  </g>
</svg>
