<?xml version="1.0"?>
<!DOCTYPE svg PUBLIC "-//W3C//DTD SVG 1.1//EN" "http://www.w3.org/Graphics/SVG/1.1/DTD/svg11.dtd">
<svg width="71.45735289623212mm" height="123.57903861062893mm" viewBox="0 0 71.45735289623212 123.57903861062893" xmlns="http://www.w3.org/2000/svg" version="1.1">
<g id="Sketch012" transform="translate(35.742720,61.822748) scale(1,-1)">
<path id="Sketch012_w0000"  d="M -27.756493190043447 -58.41522321546019 A 144.95 144.95 0 0 0 -32.3156 -57.4565A 3.41435 3.41435 0 0 0 -35.0159 -54.9803L -35.042158 -10.088419749957392 L -34.087966999261 -10.088419749957392 A 1.18518 1.18518 0 1 1 -34.088 -7.71805L -35.015929999261 -7.718051749957394 L -35.015929999261 -3.303585 L -33.49593 -3.303585 L -33.49593 1.288596 L -35.01593 1.288596 L -35.01593 58.577805 L -32.364998 58.577805 L -32.364998 61.122185250042605 L 35.01407 61.122185250042605 L 35.01407 45.839569 L 33.17675 45.839569 L 33.17675 38.169029 L 30.610416 38.169029 L 30.610416 28.625509 L 33.17675 28.625509 L 33.17675 18.11688 L 35.01407 18.11688 L 35.01407 1.288596000000001 L 33.49407 1.288596 L 33.49407 -3.303585 L 35.01407032963933 -3.303585 L 35.01407032963933 -37.94254726169906 L 24.618325865519118 -37.94254726169906 A 9.01172 9.01172 0 0 1 15.7875 -47.0659L 15.787457451656765 -58.44003340745874 A 2.30676 2.30676 0 0 0 15.281 -59.9467A 5.77954 5.77954 0 0 0 13.2971 -60.426A 144.95 144.95 0 0 0 7.99709 -60.8242L 7.997091451659098 -60.02125292569983 L 2.997091451659042 -60.02125292569983 L 2.997091451659042 -61.02125292569379 A 144.95 144.95 0 0 0 -5.00291 -60.9775L -5.002908548340835 -59.47747167516518 A 0.9 0.9 0 0 1 -6.80291 -59.4775L -6.802908548340896 -60.906720267740084 A 144.95 144.95 0 0 0 -18.1565 -59.9414L -18.156493190043484 -52.19144802850359 A 4.8 4.8 0 0 1 -27.7565 -52.1914L -27.75649319004344 -58.415172037059776 " stroke="#000000" stroke-width="0.35 px" style="stroke-width:0.35;stroke-miterlimit:4;stroke-dasharray:none;fill:none;fill-opacity:1;fill-rule: evenodd"/>
<title>b'BoardOutlineOEM'</title>
</g>
<g id="Sketch010" transform="translate(35.742720,61.822748) scale(1,-1)">
<circle cx="-32.46593" cy="10.643327" r="1.2" stroke="#000000" stroke-width="0.35 px" style="stroke-width:0.35;stroke-miterlimit:4;stroke-dasharray:none;fill:none"/>
<circle cx="32.46406999999999" cy="10.643327" r="1.2" stroke="#000000" stroke-width="0.35 px" style="stroke-width:0.35;stroke-miterlimit:4;stroke-dasharray:none;fill:none"/>
<circle cx="32.51407" cy="54.622185" r="1.2" stroke="#000000" stroke-width="0.35 px" style="stroke-width:0.35;stroke-miterlimit:4;stroke-dasharray:none;fill:none"/>
<circle cx="-32.56593" cy="53.622185" r="1.2" stroke="#000000" stroke-width="0.35 px" style="stroke-width:0.35;stroke-miterlimit:4;stroke-dasharray:none;fill:none"/>
<circle cx="-32.46593" cy="-32.159767" r="1.2" stroke="#000000" stroke-width="0.35 px" style="stroke-width:0.35;stroke-miterlimit:4;stroke-dasharray:none;fill:none"/>
<circle cx="32.51407" cy="-27.333412" r="1.2" stroke="#000000" stroke-width="0.35 px" style="stroke-width:0.35;stroke-miterlimit:4;stroke-dasharray:none;fill:none"/>
<circle cx="-12.69306" cy="-34.191917" r="1.2" stroke="#000000" stroke-width="0.35 px" style="stroke-width:0.35;stroke-miterlimit:4;stroke-dasharray:none;fill:none"/>
<circle cx="-10.84452" cy="-28.362686" r="1.2" stroke="#000000" stroke-width="0.35 px" style="stroke-width:0.35;stroke-miterlimit:4;stroke-dasharray:none;fill:none"/>
<circle cx="-5.510981999999999" cy="-20.479137" r="1.2" stroke="#000000" stroke-width="0.35 px" style="stroke-width:0.35;stroke-miterlimit:4;stroke-dasharray:none;fill:none"/>
<circle cx="16.358316000000002" cy="-13.636703" r="1.2" stroke="#000000" stroke-width="0.35 px" style="stroke-width:0.35;stroke-miterlimit:4;stroke-dasharray:none;fill:none"/>
<circle cx="13.694093000000002" cy="-35.248867000000004" r="1.2" stroke="#000000" stroke-width="0.35 px" style="stroke-width:0.35;stroke-miterlimit:4;stroke-dasharray:none;fill:none"/>
<circle cx="21.857366519510773" cy="-24.64162092917382" r="2.0" stroke="#000000" stroke-width="0.35 px" style="stroke-width:0.35;stroke-miterlimit:4;stroke-dasharray:none;fill:none"/>
<title>b'ScrewHoles'</title>
</g>
</svg>